<?xml version="1.0" standalone="no"?>
<!DOCTYPE svg PUBLIC "-//W3C//DTD SVG 20010904//EN"
 "http://www.w3.org/TR/2001/REC-SVG-20010904/DTD/svg10.dtd">
<svg version="1.0" xmlns="http://www.w3.org/2000/svg"
 width="512.000000pt" height="512.000000pt" viewBox="0 0 512.000000 512.000000"
 preserveAspectRatio="xMidYMid meet">

<g transform="translate(0.000000,512.000000) scale(0.100000,-0.100000)"
fill="#000000" stroke="none">
<path d="M445 5048 c-182 -34 -340 -197 -374 -382 -6 -35 -11 -191 -11 -373
l0 -313 2500 0 2500 0 0 313 c0 182 -5 338 -11 373 -35 190 -193 348 -383 383
-77 14 -4147 13 -4221 -1z m875 -444 c79 -47 79 -161 0 -208 -78 -45 -180 14
-180 104 0 91 102 149 180 104z m640 0 c79 -47 79 -161 0 -208 -103 -61 -225
60 -164 163 34 58 108 78 164 45z m2560 1 c16 -9 36 -29 45 -45 31 -60 10
-137 -45 -165 -24 -13 -86 -15 -380 -15 -385 0 -395 1 -425 60 -30 59 -10 136
43 164 41 23 719 23 762 1z"/>
<path d="M3725 3275 c-120 -18 -270 -50 -630 -134 -558 -130 -718 -155 -985
-156 -225 0 -239 2 -498 86 -272 88 -402 120 -514 126 -114 7 -151 -4 -175
-51 -26 -49 -19 -143 27 -351 69 -309 80 -391 86 -615 3 -113 10 -217 16 -233
16 -43 64 -77 106 -77 51 0 81 22 152 113 209 266 546 514 900 660 404 166
806 217 1255 158 427 -55 645 -35 739 70 43 47 59 104 54 189 -6 118 -63 184
-183 215 -72 18 -224 18 -350 0z"/>
<path d="M4160 1511 c-40 -40 -46 -73 -27 -147 60 -222 -38 -406 -279 -527
-114 -58 -138 -148 -52 -193 51 -26 275 -15 393 20 180 54 301 142 330 240 35
118 9 293 -66 436 -72 139 -142 200 -229 200 -32 0 -48 -6 -70 -29z"/>
</g>
</svg>
