<?xml version="1.0" encoding="UTF-8"?>
<svg xmlns="http://www.w3.org/2000/svg" xmlns:xlink="http://www.w3.org/1999/xlink" width="20px" height="20px" viewBox="0 0 20 20" version="1.1">
<g id="surface1">
<path style=" stroke:none;fill-rule:nonzero;fill:rgb(20.392157%,74.901961%,5.098039%);fill-opacity:1;" d="M 4.289062 2.71875 C 3.71875 3.839844 2.660156 5.941406 1.929688 7.375 L 0.609375 10 L 2.941406 14.632812 L 5.28125 19.277344 L 14.679688 19.324219 L 17.011719 14.679688 C 18.300781 12.132812 19.339844 10 19.328125 9.953125 C 19.308594 9.910156 18.261719 7.808594 16.988281 5.273438 L 14.671875 0.6875 L 5.320312 0.6875 Z M 14.558594 1.320312 C 14.640625 1.445312 15.171875 2.453125 15.71875 3.554688 C 16.28125 4.65625 17.21875 6.523438 17.820312 7.707031 C 18.410156 8.875 18.898438 9.917969 18.898438 10.011719 C 18.898438 10.125 16.578125 14.886719 16 15.941406 C 15.949219 16.03125 15.679688 16.570312 15.390625 17.144531 C 15.109375 17.71875 14.769531 18.347656 14.628906 18.542969 L 14.390625 18.921875 L 10 18.921875 C 6.308594 18.921875 5.589844 18.898438 5.46875 18.761719 C 5.390625 18.667969 5.121094 18.1875 4.871094 17.695312 C 1.960938 11.925781 1.101562 10.183594 1.101562 10.023438 C 1.101562 9.863281 3.878906 4.21875 5.230469 1.628906 C 5.339844 1.410156 5.519531 1.203125 5.640625 1.148438 C 5.75 1.101562 7.78125 1.066406 10.128906 1.078125 C 14.289062 1.089844 14.421875 1.101562 14.558594 1.320312 Z M 14.558594 1.320312 "/>
<path style=" stroke:none;fill-rule:nonzero;fill:rgb(20.392157%,74.901961%,5.098039%);fill-opacity:1;" d="M 8.5 4.734375 C 7.171875 5.253906 6.230469 6.191406 5.628906 7.625 C 4.96875 9.21875 4.96875 10.78125 5.628906 12.429688 C 6.570312 14.757812 9.121094 16.125 11.210938 15.414062 C 14.339844 14.347656 15.71875 10.652344 14.238281 7.304688 C 13.929688 6.617188 12.988281 5.550781 12.328125 5.136719 C 11.210938 4.4375 9.671875 4.277344 8.5 4.734375 Z M 11.351562 5.082031 C 14.75 6.332031 15.601562 11.457031 12.839844 14.046875 C 11.921875 14.898438 10.519531 15.355469 9.429688 15.148438 C 8.070312 14.898438 7.171875 14.289062 6.390625 13.109375 C 5.320312 11.492188 5.191406 9.359375 6.050781 7.453125 C 6.320312 6.859375 7.171875 5.894531 7.738281 5.527344 C 8.191406 5.242188 8.480469 5.125 9.351562 4.886719 C 9.671875 4.792969 10.910156 4.917969 11.351562 5.082031 Z M 11.351562 5.082031 "/>
<path style=" stroke:none;fill-rule:nonzero;fill:rgb(20.392157%,74.901961%,5.098039%);fill-opacity:1;" d="M 9.71875 5.941406 C 9.488281 7.613281 9.550781 7.773438 10.75 9.015625 C 11.578125 9.875 11.871094 10.390625 11.960938 11.148438 C 12.089844 12.316406 11.078125 13.542969 10.011719 13.519531 C 9.320312 13.507812 8.78125 13.152344 8.359375 12.453125 C 8.148438 12.097656 8.101562 11.871094 8.101562 11.332031 C 8.101562 10.746094 8.148438 10.539062 8.5 9.886719 C 8.871094 9.152344 9.089844 8.394531 9.101562 7.808594 C 9.101562 7.589844 8.980469 7.695312 8.378906 8.429688 C 7.410156 9.609375 7.210938 10.011719 7.128906 10.917969 C 7.050781 11.960938 7.269531 12.773438 7.851562 13.507812 C 8.988281 14.964844 11 14.976562 12.128906 13.53125 C 12.839844 12.625 13.089844 11.320312 12.761719 10.230469 C 12.648438 9.875 10.21875 5.539062 9.910156 5.136719 C 9.871094 5.089844 9.789062 5.445312 9.71875 5.941406 Z M 10.949219 7.582031 C 12.339844 9.929688 12.429688 10.136719 12.480469 11.089844 C 12.539062 12.15625 12.351562 12.773438 11.761719 13.394531 C 10.441406 14.792969 8.398438 14.347656 7.660156 12.5 C 7.351562 11.730469 7.378906 10.628906 7.71875 9.953125 C 8.261719 8.921875 8.539062 8.992188 8.03125 10.046875 C 7.371094 11.398438 7.910156 13.121094 9.199219 13.738281 C 9.761719 14.003906 10.710938 13.875 11.21875 13.464844 C 11.78125 13.015625 12.21875 12.191406 12.28125 11.492188 C 12.351562 10.585938 12.039062 9.941406 10.949219 8.75 C 10.101562 7.808594 10.011719 7.671875 9.949219 7.191406 C 9.871094 6.628906 9.929688 6.308594 10.089844 6.308594 C 10.148438 6.308594 10.53125 6.878906 10.949219 7.582031 Z M 10.949219 7.582031 "/>
<path style=" stroke:none;fill-rule:nonzero;fill:rgb(20.392157%,74.901961%,5.098039%);fill-opacity:1;" d="M 9.390625 10.148438 C 8.738281 10.550781 8.640625 11.652344 9.199219 12.292969 C 9.441406 12.558594 9.570312 12.613281 10 12.613281 C 10.429688 12.613281 10.558594 12.558594 10.800781 12.292969 C 11.78125 11.167969 10.609375 9.390625 9.390625 10.148438 Z M 10.488281 10.621094 C 10.898438 11.007812 10.921875 11.582031 10.539062 11.984375 C 10.230469 12.316406 10.011719 12.339844 9.609375 12.097656 C 9.019531 11.753906 9.039062 10.835938 9.648438 10.457031 C 9.960938 10.265625 10.160156 10.296875 10.488281 10.621094 Z M 10.488281 10.621094 "/>
</g>
</svg>
